<?xml version="1.0"?>
<svg xmlns:rdf="http://www.w3.org/1999/02/22-rdf-syntax-ns#" xmlns="http://www.w3.org/2000/svg" xmlns:cc="http://creativecommons.org/ns#" xmlns:xlink="http://www.w3.org/1999/xlink" xmlns:dc="http://purl.org/dc/elements/1.1/" xmlns:svg="http://www.w3.org/2000/svg" id="svg2" viewBox="0 0 68 94" version="1.0">
  <defs id="defs4">
    <linearGradient id="linearGradient2433" y2="104.59" gradientUnits="userSpaceOnUse" x2="103.29" gradientTransform="translate(-23.077 -27.47)" y1="27.31" x1="57.074">
      <stop id="stop3018" stop-color="#949494" offset="0"/>
      <stop id="stop3020" stop-color="#949494" stop-opacity="0" offset="1"/>
    </linearGradient>
    <linearGradient id="linearGradient2436" y2="138.12" gradientUnits="userSpaceOnUse" x2="46.517" gradientTransform="translate(-11.107 -15.662)" y1="14.79" x1="46.517">
      <stop id="stop10796" stop-color="#989898" offset="0"/>
      <stop id="stop10798" stop-color="#989898" stop-opacity="0" offset="1"/>
    </linearGradient>
    <radialGradient id="radialGradient2439" gradientUnits="userSpaceOnUse" cy="98.385" cx="16.074" gradientTransform="matrix(2.2777 1.8145 -1.5547 2.3139 122.56 -183.55)" r="7.395">
      <stop id="stop10767" stop-color="#989898" offset="0"/>
      <stop id="stop10769" stop-color="#989898" stop-opacity="0" offset="1"/>
    </radialGradient>
  </defs>
  <g id="layer1">
    <g id="g2442">
      <path id="path1318" d="m34.485 0.6235c-0.398 0.0403-0.738 0.1918-1 0.4687 2.938 6.761 4.06 16.224 3.907 21.469-0.288 9.735-1.282 16.834-2.719 25.063-1.402 8.028-4.191 15.294-6.75 22.812-1.843 5.994-5.729 0.008-8.5-1.219-3.993-1.768-7.508-1.889-11.375 0-3.867 1.89-6.0308 4.677-7.0001 9.063-0.94749 4.287 1.244 9.598 4.8125 12.5 3.466 2.818 8.5926 3.197 12.75 1.875 4.104-1.421 7.804-5.293 9.344-9.313 0.789-1.869 1.254-2.696 2.188-5.656s2.18-7.297 3.218-11c1.911-6.816 4.563-13.026 6.219-28.375 0.38-3.091 1.15-11.245 1.25-18.531 0.011-0.802 0.225-0.822 0.344-0.844 0.699-0.129 2.309 1.072 4.625 2.594s5.506 3.556 7.062 4.5c7.645 4.635 11.7 10.651 12.063 17.875 0.253 5.045-0.667 8.959-3.469 15-1.057 2.28-1.182 2.797-0.812 3.031 0.703 0.445 0.817 0.375 1.781-1.031 3.01-4.392 4.767-10.958 4.75-17.719-0.011-4.21-0.607-6.78-1.75-9.438-1.585-3.685-5.344-8.647-10.219-13.781-2.6-2.739-5.132-5.415-5.625-5.937-3.464-3.671-8.283-8.6493-9.176-11.912-0.175-0.6373-4.723-1.6154-5.918-1.4945z"/>
      <path id="path2279" fill="url(#radialGradient2439)" d="m15.638 83.541c-4.175 3.76-9.8363 4.212-12.638 1.01-2.8016-3.202-1.6876-8.852 2.4867-12.612 4.1742-3.759 9.8353-4.212 12.637-1.009 2.792 3.191 1.699 8.811-2.446 12.575"/>
      <path id="path7829" d="m35.393 1.0566c-0.295-0.0206-0.566-0.0062-0.937 0.0313-0.249 0.0252-0.379 0.1176-0.531 0.2187 2.872 6.8258 3.965 16.048 3.812 21.281-0.288 9.757-1.281 16.888-2.719 25.125-1.408 8.066-4.102 15.219-6.656 22.719 0.366-0.351 1.319-2.048 1.81-3.557 2.542-7.813 4.33-11.074 6.721-26.037v-0.031l0.063-0.25c0.001-0.011-0.002-0.021 0-0.032 2.304-14.636 2.335-27.424-0.719-39.281-0.319-0.0817-0.609-0.1709-0.844-0.1874z" fill="url(#linearGradient2436)"/>
      <path id="path3014" d="m42.538 6.9347c0.954 9.2963 6.505 15.648 8.791 17.126 0.671 0.428 1.496 0.989 1.875 1.219 7.794 4.725 12.062 11.011 12.438 18.5 0.259 5.159-0.735 9.246-3.563 15.344-0.41 0.885-0.551 1.302-0.687 1.687 0.131-0.163 0.127-0.121 0.343-0.437 2.888-4.212 4.611-10.655 4.594-17.282-0.01-4.152-0.454-6.601-1.656-9.094-0.136-0.282-0.818-1.564-1.469-2.781-0.65-1.216-1.3-2.4-1.437-2.656-0.422-0.788-2.319-3.028-7.188-8.156-2.601-2.74-5.13-5.413-5.625-5.938-2.19-2.32-5.04-5.0541-6.416-7.5323z" fill="url(#linearGradient2433)"/>
    </g>
  </g>
  <metadata>
    <rdf:RDF>
      <cc:Work>
        <dc:format>image/svg+xml</dc:format>
        <dc:type rdf:resource="http://purl.org/dc/dcmitype/StillImage"/>
        <cc:license rdf:resource="http://creativecommons.org/licenses/publicdomain/"/>
        <dc:publisher>
          <cc:Agent rdf:about="http://openclipart.org/">
            <dc:title>Openclipart</dc:title>
          </cc:Agent>
        </dc:publisher>
        <dc:title>simple_croche</dc:title>
        <dc:date>2008-05-26T12:09:02</dc:date>
        <dc:description>clip art, clipart, image, media, music, music, note, note, png, public domain, svg, </dc:description>
        <dc:source>http://openclipart.org/detail/17054/simple_croche-by-jean_victor_balin</dc:source>
        <dc:creator>
          <cc:Agent>
            <dc:title>jean_victor_balin</dc:title>
          </cc:Agent>
        </dc:creator>
        <dc:subject>
          <rdf:Bag>
            <rdf:li>clip art</rdf:li>
            <rdf:li>clipart</rdf:li>
            <rdf:li>image</rdf:li>
            <rdf:li>media</rdf:li>
            <rdf:li>music</rdf:li>
            <rdf:li>note</rdf:li>
            <rdf:li>png</rdf:li>
            <rdf:li>public domain</rdf:li>
            <rdf:li>svg</rdf:li>
          </rdf:Bag>
        </dc:subject>
      </cc:Work>
      <cc:License rdf:about="http://creativecommons.org/licenses/publicdomain/">
        <cc:permits rdf:resource="http://creativecommons.org/ns#Reproduction"/>
        <cc:permits rdf:resource="http://creativecommons.org/ns#Distribution"/>
        <cc:permits rdf:resource="http://creativecommons.org/ns#DerivativeWorks"/>
      </cc:License>
    </rdf:RDF>
  </metadata>
</svg>
